<svg width="2374" height="513" viewBox="0 0 2374 513" fill="none" xmlns="http://www.w3.org/2000/svg">
<path d="M40.48 257H6.44604V63.95H40.48L111.408 189.504L182.336 63.95H216.656V257H182.336V128.872L122.848 234.692H100.254L40.48 128.872V257ZM265.403 232.118C246.337 213.051 236.803 189.218 236.803 160.618C236.803 132.018 246.337 108.185 265.403 89.118C284.661 69.8607 308.685 60.232 337.475 60.232C365.885 60.232 389.718 69.8607 408.975 89.118C428.233 108.375 437.861 132.209 437.861 160.618C437.861 189.027 428.233 212.861 408.975 232.118C389.909 251.185 366.075 260.718 337.475 260.718C308.494 260.718 284.47 251.185 265.403 232.118ZM272.267 160.332C272.267 179.589 278.464 195.701 290.857 208.666C303.06 221.441 318.599 227.828 337.475 227.828C356.161 227.828 371.605 221.441 383.807 208.666C396.201 195.701 402.397 179.589 402.397 160.332C402.397 141.456 396.201 125.535 383.807 112.57C371.414 99.6047 355.97 93.122 337.475 93.122C318.79 93.122 303.251 99.6047 290.857 112.57C278.464 125.535 272.267 141.456 272.267 160.332ZM492.259 63.95V199.8L595.505 63.95H626.965V257H592.931V121.722L489.685 257H458.225V63.95H492.259ZM491.973 0.743988H519.429C519.429 7.22665 521.717 12.6607 526.293 17.046C531.06 21.4313 536.875 23.624 543.739 23.624C550.413 23.624 555.942 21.4313 560.327 17.046C564.903 12.6607 567.191 7.22665 567.191 0.743988H594.933C594.933 14.8533 589.976 26.5793 580.061 35.922C570.528 45.2647 558.516 49.936 544.025 49.936C529.153 49.936 516.76 45.2647 506.845 35.922C496.931 26.5793 491.973 14.8533 491.973 0.743988ZM675.568 232.118C656.501 213.051 646.968 189.218 646.968 160.618C646.968 132.018 656.501 108.185 675.568 89.118C694.825 69.8607 718.849 60.232 747.64 60.232C767.088 60.232 784.724 65.094 800.55 74.818C816.566 84.3513 828.673 97.2213 836.872 113.428L803.982 125.726C798.262 115.43 790.444 107.422 780.53 101.702C770.615 95.982 759.652 93.122 747.64 93.122C728.954 93.122 713.415 99.6047 701.022 112.57C688.628 125.535 682.432 141.456 682.432 160.332C682.432 179.589 688.628 195.701 701.022 208.666C713.224 221.441 728.764 227.828 747.64 227.828C759.652 227.828 770.615 224.968 780.53 219.248C790.444 213.528 798.262 205.52 803.982 195.224L836.872 207.522C828.673 223.729 816.566 236.694 800.55 246.418C784.724 255.951 767.088 260.718 747.64 260.718C718.658 260.718 694.634 251.185 675.568 232.118ZM856.101 257V63.95H890.135V143.744H921.309C924.931 119.529 935.99 99.5093 954.485 83.684C972.979 68.0493 995.001 60.232 1020.55 60.232C1048.96 60.232 1072.79 69.8607 1092.05 89.118C1111.31 108.375 1120.94 132.113 1120.94 160.332C1120.94 188.932 1111.31 212.861 1092.05 232.118C1072.98 251.185 1049.15 260.718 1020.55 260.718C994.62 260.718 972.407 252.71 953.913 236.694C935.418 220.869 924.455 200.372 921.023 175.204H890.135V257H856.101ZM955.629 160.332C955.629 179.78 961.825 195.987 974.219 208.952C986.421 221.727 1001.87 228.114 1020.55 228.114C1039.24 228.114 1054.68 221.727 1066.88 208.952C1079.28 195.987 1085.47 179.78 1085.47 160.332C1085.47 141.265 1079.28 125.249 1066.88 112.284C1054.68 99.5093 1039.24 93.122 1020.55 93.122C1002.06 93.122 986.612 99.6047 974.219 112.57C961.825 125.535 955.629 141.456 955.629 160.332ZM1141.62 257V63.95H1175.65V152.896L1252.02 63.95H1295.49L1214.55 158.33L1300.92 257H1257.45L1175.65 163.478V257H1141.62ZM842.33 484.118C823.263 465.051 813.73 441.218 813.73 412.618C813.73 384.018 823.263 360.185 842.33 341.118C861.587 321.861 885.611 312.232 914.402 312.232C933.85 312.232 951.487 317.094 967.312 326.818C983.328 336.351 995.436 349.221 1003.63 365.428L970.744 377.726C965.024 367.43 957.207 359.422 947.292 353.702C937.377 347.982 926.414 345.122 914.402 345.122C895.717 345.122 880.177 351.605 867.784 364.57C855.391 377.535 849.194 393.456 849.194 412.332C849.194 431.589 855.391 447.701 867.784 460.666C879.987 473.441 895.526 479.828 914.402 479.828C926.414 479.828 937.377 476.968 947.292 471.248C957.207 465.528 965.024 457.52 970.744 447.224L1003.63 459.522C995.436 475.729 983.328 488.694 967.312 498.418C951.487 507.951 933.85 512.718 914.402 512.718C885.421 512.718 861.397 503.185 842.33 484.118ZM1022.86 315.95H1164.15V347.41H1056.9V395.744H1149.28V427.204H1056.9V477.54H1165.58V509H1022.86V315.95ZM1218.13 439.502V509H1184.1V315.95H1269.9C1288.77 315.95 1304.41 321.861 1316.8 333.682C1329.38 345.313 1335.68 359.994 1335.68 377.726C1335.68 395.458 1329.38 410.139 1316.8 421.77C1304.41 433.591 1288.77 439.502 1269.9 439.502H1218.13ZM1269.9 347.41H1218.13V408.042H1269.9C1278.67 408.042 1285.91 405.182 1291.63 399.462C1297.35 393.742 1300.21 386.497 1300.21 377.726C1300.21 369.146 1297.35 361.996 1291.63 356.276C1285.91 350.365 1278.67 347.41 1269.9 347.41ZM1389.7 347.41V509H1355.66V315.95H1481.79V347.41H1389.7ZM1497.62 315.95H1638.91V347.41H1531.66V395.744H1624.04V427.204H1531.66V477.54H1640.34V509H1497.62V315.95ZM1658.86 315.95H1800.14V347.41H1692.89V395.744H1785.27V427.204H1692.89V477.54H1801.57V509H1658.86V315.95ZM1918.47 509H1820.09V315.95H1912.75C1929.53 315.95 1943.54 321.003 1954.79 331.108C1966.04 341.213 1971.67 353.511 1971.67 368.002C1971.67 384.209 1965.09 397.365 1951.93 407.47C1960.7 412.427 1967.57 419.005 1972.53 427.204C1977.48 435.403 1979.96 444.364 1979.96 454.088C1979.96 469.532 1974.05 482.593 1962.23 493.27C1950.6 503.757 1936.01 509 1918.47 509ZM1918.47 425.202H1854.12V477.54H1918.47C1925.72 477.54 1931.82 475.061 1936.78 470.104C1941.92 464.956 1944.5 458.664 1944.5 451.228C1944.5 443.983 1941.92 437.881 1936.78 432.924C1931.82 427.776 1925.72 425.202 1918.47 425.202ZM1912.75 347.41H1854.12V394.028H1912.75C1919.43 394.028 1924.95 391.835 1929.34 387.45C1933.92 383.065 1936.2 377.535 1936.2 370.862C1936.2 364.189 1933.92 358.659 1929.34 354.274C1924.95 349.698 1919.43 347.41 1912.75 347.41ZM2034.35 509H2000.31V315.95H2034.35V395.744H2133.59V315.95H2167.62V509H2133.59V427.204H2034.35V509ZM2215.39 509H2179.64L2262.58 315.95H2290.33L2373.55 509H2337.8L2321.79 470.962H2231.41L2215.39 509ZM2308.63 439.788L2276.6 364.284L2244.57 439.788H2308.63Z" fill="#151515"/>
<mask id="mask0_286_13" style="mask-type:luminance" maskUnits="userSpaceOnUse" x="-4" y="-2" width="2381" height="517">
<path d="M2377 -2H-4V515H2377V-2Z" fill="white"/>
<path d="M40.48 257H6.44604V63.95H40.48L111.408 189.504L182.336 63.95H216.656V257H182.336V128.872L122.848 234.692H100.254L40.48 128.872V257ZM265.403 232.118C246.337 213.051 236.803 189.218 236.803 160.618C236.803 132.018 246.337 108.185 265.403 89.118C284.661 69.8607 308.685 60.232 337.475 60.232C365.885 60.232 389.718 69.8607 408.975 89.118C428.233 108.375 437.861 132.209 437.861 160.618C437.861 189.027 428.233 212.861 408.975 232.118C389.909 251.185 366.075 260.718 337.475 260.718C308.494 260.718 284.47 251.185 265.403 232.118ZM272.267 160.332C272.267 179.589 278.464 195.701 290.857 208.666C303.06 221.441 318.599 227.828 337.475 227.828C356.161 227.828 371.605 221.441 383.807 208.666C396.201 195.701 402.397 179.589 402.397 160.332C402.397 141.456 396.201 125.535 383.807 112.57C371.414 99.6047 355.97 93.122 337.475 93.122C318.79 93.122 303.251 99.6047 290.857 112.57C278.464 125.535 272.267 141.456 272.267 160.332ZM492.259 63.95V199.8L595.505 63.95H626.965V257H592.931V121.722L489.685 257H458.225V63.95H492.259ZM491.973 0.743988H519.429C519.429 7.22665 521.717 12.6607 526.293 17.046C531.06 21.4313 536.875 23.624 543.739 23.624C550.413 23.624 555.942 21.4313 560.327 17.046C564.903 12.6607 567.191 7.22665 567.191 0.743988H594.933C594.933 14.8533 589.976 26.5793 580.061 35.922C570.528 45.2647 558.516 49.936 544.025 49.936C529.153 49.936 516.76 45.2647 506.845 35.922C496.931 26.5793 491.973 14.8533 491.973 0.743988ZM675.568 232.118C656.501 213.051 646.968 189.218 646.968 160.618C646.968 132.018 656.501 108.185 675.568 89.118C694.825 69.8607 718.849 60.232 747.64 60.232C767.088 60.232 784.724 65.094 800.55 74.818C816.566 84.3513 828.673 97.2213 836.872 113.428L803.982 125.726C798.262 115.43 790.444 107.422 780.53 101.702C770.615 95.982 759.652 93.122 747.64 93.122C728.954 93.122 713.415 99.6047 701.022 112.57C688.628 125.535 682.432 141.456 682.432 160.332C682.432 179.589 688.628 195.701 701.022 208.666C713.224 221.441 728.764 227.828 747.64 227.828C759.652 227.828 770.615 224.968 780.53 219.248C790.444 213.528 798.262 205.52 803.982 195.224L836.872 207.522C828.673 223.729 816.566 236.694 800.55 246.418C784.724 255.951 767.088 260.718 747.64 260.718C718.658 260.718 694.634 251.185 675.568 232.118ZM856.101 257V63.95H890.135V143.744H921.309C924.931 119.529 935.99 99.5093 954.485 83.684C972.979 68.0493 995.001 60.232 1020.55 60.232C1048.96 60.232 1072.79 69.8607 1092.05 89.118C1111.31 108.375 1120.94 132.113 1120.94 160.332C1120.94 188.932 1111.31 212.861 1092.05 232.118C1072.98 251.185 1049.15 260.718 1020.55 260.718C994.62 260.718 972.407 252.71 953.913 236.694C935.418 220.869 924.455 200.372 921.023 175.204H890.135V257H856.101ZM955.629 160.332C955.629 179.78 961.825 195.987 974.219 208.952C986.421 221.727 1001.87 228.114 1020.55 228.114C1039.24 228.114 1054.68 221.727 1066.88 208.952C1079.28 195.987 1085.47 179.78 1085.47 160.332C1085.47 141.265 1079.28 125.249 1066.88 112.284C1054.68 99.5093 1039.24 93.122 1020.55 93.122C1002.06 93.122 986.612 99.6047 974.219 112.57C961.825 125.535 955.629 141.456 955.629 160.332ZM1141.62 257V63.95H1175.65V152.896L1252.02 63.95H1295.49L1214.55 158.33L1300.92 257H1257.45L1175.65 163.478V257H1141.62ZM842.33 484.118C823.263 465.051 813.73 441.218 813.73 412.618C813.73 384.018 823.263 360.185 842.33 341.118C861.587 321.861 885.611 312.232 914.402 312.232C933.85 312.232 951.487 317.094 967.312 326.818C983.328 336.351 995.436 349.221 1003.63 365.428L970.744 377.726C965.024 367.43 957.207 359.422 947.292 353.702C937.377 347.982 926.414 345.122 914.402 345.122C895.717 345.122 880.177 351.605 867.784 364.57C855.391 377.535 849.194 393.456 849.194 412.332C849.194 431.589 855.391 447.701 867.784 460.666C879.987 473.441 895.526 479.828 914.402 479.828C926.414 479.828 937.377 476.968 947.292 471.248C957.207 465.528 965.024 457.52 970.744 447.224L1003.63 459.522C995.436 475.729 983.328 488.694 967.312 498.418C951.487 507.951 933.85 512.718 914.402 512.718C885.421 512.718 861.397 503.185 842.33 484.118ZM1022.86 315.95H1164.15V347.41H1056.9V395.744H1149.28V427.204H1056.9V477.54H1165.58V509H1022.86V315.95ZM1218.13 439.502V509H1184.1V315.95H1269.9C1288.77 315.95 1304.41 321.861 1316.8 333.682C1329.38 345.313 1335.68 359.994 1335.68 377.726C1335.68 395.458 1329.38 410.139 1316.8 421.77C1304.41 433.591 1288.77 439.502 1269.9 439.502H1218.13ZM1269.9 347.41H1218.13V408.042H1269.9C1278.67 408.042 1285.91 405.182 1291.63 399.462C1297.35 393.742 1300.21 386.497 1300.21 377.726C1300.21 369.146 1297.35 361.996 1291.63 356.276C1285.91 350.365 1278.67 347.41 1269.9 347.41ZM1389.7 347.41V509H1355.66V315.95H1481.79V347.41H1389.7ZM1497.62 315.95H1638.91V347.41H1531.66V395.744H1624.04V427.204H1531.66V477.54H1640.34V509H1497.62V315.95ZM1658.86 315.95H1800.14V347.41H1692.89V395.744H1785.27V427.204H1692.89V477.54H1801.57V509H1658.86V315.95ZM1918.47 509H1820.09V315.95H1912.75C1929.53 315.95 1943.54 321.003 1954.79 331.108C1966.04 341.213 1971.67 353.511 1971.67 368.002C1971.67 384.209 1965.09 397.365 1951.93 407.47C1960.7 412.427 1967.57 419.005 1972.53 427.204C1977.48 435.403 1979.96 444.364 1979.96 454.088C1979.96 469.532 1974.05 482.593 1962.23 493.27C1950.6 503.757 1936.01 509 1918.47 509ZM1918.47 425.202H1854.12V477.54H1918.47C1925.72 477.54 1931.82 475.061 1936.78 470.104C1941.92 464.956 1944.5 458.664 1944.5 451.228C1944.5 443.983 1941.92 437.881 1936.78 432.924C1931.82 427.776 1925.72 425.202 1918.47 425.202ZM1912.75 347.41H1854.12V394.028H1912.75C1919.43 394.028 1924.95 391.835 1929.34 387.45C1933.92 383.065 1936.2 377.535 1936.2 370.862C1936.2 364.189 1933.92 358.659 1929.34 354.274C1924.95 349.698 1919.43 347.41 1912.75 347.41ZM2034.35 509H2000.31V315.95H2034.35V395.744H2133.59V315.95H2167.62V509H2133.59V427.204H2034.35V509ZM2215.39 509H2179.64L2262.58 315.95H2290.33L2373.55 509H2337.8L2321.79 470.962H2231.41L2215.39 509ZM2308.63 439.788L2276.6 364.284L2244.57 439.788H2308.63Z" fill="black"/>
<path d="M80.2339 439.216L38.4779 509H0.439941L44.4839 434.926C32.0906 430.35 22.1759 422.914 14.7399 412.618C7.49461 402.322 3.87194 390.691 3.87194 377.726C3.87194 360.185 10.0686 345.503 22.4619 333.682C35.2366 321.861 50.8712 315.95 69.3659 315.95H158.026V509H123.992V439.216H80.2339ZM69.3659 407.756H123.992V347.41H69.3659C60.7859 347.41 53.6359 350.365 47.9159 356.276C42.1959 361.996 39.3359 369.146 39.3359 377.726C39.3359 386.306 42.1959 393.456 47.9159 399.176C53.6359 404.896 60.7859 407.756 69.3659 407.756ZM218.47 509H184.436V315.95H218.47V395.744H317.712V315.95H351.746V509H317.712V427.204H218.47V509ZM412.101 509H378.067V315.95H412.101V395.744H511.343V315.95H545.377V509H511.343V427.204H412.101V509ZM593.148 509H557.398L640.338 315.95H668.08L751.306 509H715.556L699.54 470.962H609.164L593.148 509ZM686.384 439.788L654.352 364.284L622.32 439.788H686.384Z" fill="black"/>
</mask>
<g mask="url(#mask0_286_13)">
<path d="M40.48 257V259H42.48V257H40.48ZM6.44598 257H4.44598V259H6.44598V257ZM6.44598 63.95V61.95H4.44598V63.95H6.44598ZM40.48 63.95L42.2213 62.9663L41.6472 61.95H40.48V63.95ZM111.408 189.504L109.667 190.488L111.408 193.57L113.149 190.488L111.408 189.504ZM182.336 63.95V61.95H181.169L180.595 62.9663L182.336 63.95ZM216.656 63.95H218.656V61.95H216.656V63.95ZM216.656 257V259H218.656V257H216.656ZM182.336 257H180.336V259H182.336V257ZM182.336 128.872H184.336V121.233L180.593 127.892L182.336 128.872ZM122.848 234.692V236.692H124.018L124.591 235.672L122.848 234.692ZM100.254 234.692L98.5126 235.676L99.0867 236.692H100.254V234.692ZM40.48 128.872L42.2214 127.888L38.48 121.265V128.872H40.48ZM40.48 255H6.44598V259H40.48V255ZM8.44598 257V63.95H4.44598V257H8.44598ZM6.44598 65.95H40.48V61.95H6.44598V65.95ZM38.7387 64.9337L109.667 190.488L113.149 188.52L42.2213 62.9663L38.7387 64.9337ZM113.149 190.488L184.077 64.9337L180.595 62.9663L109.667 188.52L113.149 190.488ZM182.336 65.95H216.656V61.95H182.336V65.95ZM214.656 63.95V257H218.656V63.95H214.656ZM216.656 255H182.336V259H216.656V255ZM184.336 257V128.872H180.336V257H184.336ZM180.593 127.892L121.105 233.712L124.591 235.672L184.079 129.852L180.593 127.892ZM122.848 232.692H100.254V236.692H122.848V232.692ZM101.995 233.708L42.2214 127.888L38.7386 129.856L98.5126 235.676L101.995 233.708ZM38.48 128.872V257H42.48V128.872H38.48ZM290.857 208.666L292.304 207.285L292.303 207.284L290.857 208.666ZM383.807 208.666L382.362 207.284L382.361 207.285L383.807 208.666ZM266.818 230.704C248.15 212.037 238.803 188.723 238.803 160.618H234.803C234.803 189.713 244.523 214.066 263.989 233.532L266.818 230.704ZM238.803 160.618C238.803 132.513 248.15 109.199 266.818 90.5322L263.989 87.7038C244.523 107.17 234.803 131.523 234.803 160.618H238.803ZM266.818 90.5322C285.677 71.6731 309.181 62.232 337.475 62.232V58.232C308.188 58.232 283.645 68.0482 263.989 87.7038L266.818 90.5322ZM337.475 62.232C365.38 62.232 388.697 71.6676 407.561 90.5322L410.39 87.7038C390.74 68.0537 366.39 58.232 337.475 58.232V62.232ZM407.561 90.5322C426.426 109.397 435.861 132.714 435.861 160.618H439.861C439.861 131.704 430.04 107.354 410.39 87.7038L407.561 90.5322ZM435.861 160.618C435.861 188.522 426.426 211.839 407.561 230.704L410.39 233.532C430.04 213.882 439.861 189.532 439.861 160.618H435.861ZM407.561 230.704C388.894 249.371 365.581 258.718 337.475 258.718V262.718C366.57 262.718 390.923 252.998 410.39 233.532L407.561 230.704ZM337.475 258.718C308.981 258.718 285.479 249.365 266.818 230.704L263.989 233.532C283.461 253.004 308.007 262.718 337.475 262.718V258.718ZM270.267 160.332C270.267 180.062 276.635 196.681 289.412 210.048L292.303 207.284C280.293 194.72 274.267 179.116 274.267 160.332H270.267ZM289.411 210.047C302.019 223.246 318.095 229.828 337.475 229.828V225.828C319.104 225.828 304.101 219.635 292.304 207.285L289.411 210.047ZM337.475 229.828C356.672 229.828 372.65 223.242 385.254 210.047L382.361 207.285C370.56 219.639 355.65 225.828 337.475 225.828V229.828ZM385.253 210.048C398.03 196.681 404.397 180.062 404.397 160.332H400.397C400.397 179.116 394.371 194.72 382.362 207.284L385.253 210.048ZM404.397 160.332C404.397 140.971 398.022 124.547 385.253 111.188L382.362 113.952C394.379 126.524 400.397 141.941 400.397 160.332H404.397ZM385.253 111.188C372.469 97.8143 356.497 91.122 337.475 91.122V95.122C355.443 95.122 370.359 101.395 382.362 113.952L385.253 111.188ZM337.475 91.122C318.27 91.122 302.2 97.8098 289.412 111.188L292.303 113.952C304.302 101.4 319.31 95.122 337.475 95.122V91.122ZM289.412 111.188C276.642 124.547 270.267 140.971 270.267 160.332H274.267C274.267 141.941 280.286 126.524 292.303 113.952L289.412 111.188ZM492.259 63.95H494.259V61.95H492.259V63.95ZM492.259 199.8H490.259V205.737L493.852 201.01L492.259 199.8ZM595.505 63.95V61.95H594.513L593.913 62.7398L595.505 63.95ZM626.965 63.95H628.965V61.95H626.965V63.95ZM626.965 257V259H628.965V257H626.965ZM592.931 257H590.931V259H592.931V257ZM592.931 121.722H594.931V115.805L591.342 120.509L592.931 121.722ZM489.685 257V259H490.675L491.275 258.213L489.685 257ZM458.225 257H456.225V259H458.225V257ZM458.225 63.95V61.95H456.225V63.95H458.225ZM491.973 0.74399V-1.25601H489.973V0.74399H491.973ZM519.429 0.74399H521.429V-1.25601H519.429V0.74399ZM526.293 17.046L524.91 18.49L524.924 18.5041L524.939 18.5178L526.293 17.046ZM560.327 17.046L558.944 15.602L558.928 15.6167L558.913 15.6318L560.327 17.046ZM567.191 0.74399V-1.25601H565.191V0.74399H567.191ZM594.933 0.74399H596.933V-1.25601H594.933V0.74399ZM580.061 35.922L578.69 34.4664L578.676 34.4798L578.662 34.4936L580.061 35.922ZM490.259 63.95V199.8H494.259V63.95H490.259ZM493.852 201.01L597.098 65.1602L593.913 62.7398L490.667 198.59L493.852 201.01ZM595.505 65.95H626.965V61.95H595.505V65.95ZM624.965 63.95V257H628.965V63.95H624.965ZM626.965 255H592.931V259H626.965V255ZM594.931 257V121.722H590.931V257H594.931ZM591.342 120.509L488.096 255.787L491.275 258.213L594.521 122.935L591.342 120.509ZM489.685 255H458.225V259H489.685V255ZM460.225 257V63.95H456.225V257H460.225ZM458.225 65.95H492.259V61.95H458.225V65.95ZM491.973 2.74399H519.429V-1.25601H491.973V2.74399ZM517.429 0.74399C517.429 7.75781 519.93 13.7178 524.91 18.49L527.677 15.602C523.505 11.6035 521.429 6.6955 521.429 0.74399H517.429ZM524.939 18.5178C530.099 23.2644 536.407 25.624 543.739 25.624V21.624C537.344 21.624 532.022 19.5982 527.648 15.5741L524.939 18.5178ZM543.739 25.624C550.899 25.624 556.951 23.251 561.742 18.4602L558.913 15.6318C554.933 19.6116 549.927 21.624 543.739 21.624V25.624ZM561.711 18.49C566.691 13.7178 569.191 7.75781 569.191 0.74399H565.191C565.191 6.6955 563.116 11.6035 558.944 15.602L561.711 18.49ZM567.191 2.74399H594.933V-1.25601H567.191V2.74399ZM592.933 0.74399C592.933 14.3245 588.188 25.5166 578.69 34.4664L581.433 37.3776C591.765 27.642 596.933 15.3822 596.933 0.74399H592.933ZM578.662 34.4936C569.536 43.4368 558.042 47.936 544.025 47.936V51.936C558.99 51.936 571.52 47.0925 581.461 37.3504L578.662 34.4936ZM544.025 47.936C529.612 47.936 517.725 43.4259 508.217 34.4664L505.474 37.3776C515.795 47.1034 528.695 51.936 544.025 51.936V47.936ZM508.217 34.4664C498.719 25.5166 493.973 14.3245 493.973 0.74399H489.973C489.973 15.3822 495.142 27.642 505.474 37.3776L508.217 34.4664ZM800.55 74.818L799.503 76.522L799.515 76.5294L799.527 76.5366L800.55 74.818ZM836.872 113.428L837.572 115.301L839.665 114.519L838.656 112.525L836.872 113.428ZM803.982 125.726L802.233 126.697L803.069 128.202L804.682 127.599L803.982 125.726ZM701.022 208.666L702.468 207.285L702.467 207.284L701.022 208.666ZM803.982 195.224L804.682 193.351L803.069 192.748L802.233 194.253L803.982 195.224ZM836.872 207.522L838.656 208.425L839.665 206.431L837.572 205.649L836.872 207.522ZM800.55 246.418L801.582 248.131L801.588 248.128L800.55 246.418ZM676.982 230.704C658.315 212.037 648.968 188.723 648.968 160.618H644.968C644.968 189.713 654.687 214.066 674.153 233.532L676.982 230.704ZM648.968 160.618C648.968 132.513 658.315 109.199 676.982 90.5322L674.153 87.7038C654.687 107.17 644.968 131.523 644.968 160.618H648.968ZM676.982 90.5322C695.841 71.6731 719.346 62.232 747.64 62.232V58.232C718.352 58.232 693.809 68.0482 674.153 87.7038L676.982 90.5322ZM747.64 62.232C766.736 62.232 784.007 67.0009 799.503 76.522L801.597 73.114C785.441 63.1871 767.439 58.232 747.64 58.232V62.232ZM799.527 76.5366C815.225 85.8811 827.064 98.4721 835.087 114.331L838.656 112.525C830.282 95.9706 817.906 82.8215 801.573 73.0994L799.527 76.5366ZM836.171 111.555L803.281 123.853L804.682 127.599L837.572 115.301L836.171 111.555ZM805.73 124.755C799.839 114.151 791.767 105.876 781.529 99.9696L779.53 103.434C789.121 108.968 796.684 116.709 802.233 126.697L805.73 124.755ZM781.529 99.9696C771.295 94.0655 759.984 91.122 747.64 91.122V95.122C759.319 95.122 769.935 97.8985 779.53 103.434L781.529 99.9696ZM747.64 91.122C728.434 91.122 712.364 97.8098 699.576 111.188L702.467 113.952C714.466 101.4 729.475 95.122 747.64 95.122V91.122ZM699.576 111.188C686.807 124.547 680.432 140.971 680.432 160.332H684.432C684.432 141.941 690.45 126.524 702.467 113.952L699.576 111.188ZM680.432 160.332C680.432 180.062 686.799 196.681 699.576 210.048L702.467 207.284C690.458 194.72 684.432 179.116 684.432 160.332H680.432ZM699.575 210.047C712.183 223.246 728.259 229.828 747.64 229.828V225.828C729.268 225.828 714.265 219.635 702.468 207.285L699.575 210.047ZM747.64 229.828C759.984 229.828 771.295 226.885 781.529 220.98L779.53 217.516C769.935 223.051 759.319 225.828 747.64 225.828V229.828ZM781.529 220.98C791.767 215.074 799.839 206.799 805.73 196.195L802.233 194.253C796.684 204.241 789.121 211.982 779.53 217.516L781.529 220.98ZM803.281 197.097L836.171 209.395L837.572 205.649L804.682 193.351L803.281 197.097ZM835.087 206.619C827.062 222.482 815.219 235.172 799.512 244.708L801.588 248.128C817.912 238.216 830.283 224.976 838.656 208.425L835.087 206.619ZM799.518 244.705C784.02 254.04 766.744 258.718 747.64 258.718V262.718C767.431 262.718 785.428 257.862 801.582 248.131L799.518 244.705ZM747.64 258.718C719.145 258.718 695.643 249.365 676.982 230.704L674.153 233.532C693.625 253.004 718.172 262.718 747.64 262.718V258.718ZM856.101 257H854.101V259H856.101V257ZM856.101 63.95V61.95H854.101V63.95H856.101ZM890.135 63.95H892.135V61.95H890.135V63.95ZM890.135 143.744H888.135V145.744H890.135V143.744ZM921.309 143.744V145.744H923.032L923.287 144.04L921.309 143.744ZM954.485 83.684L953.193 82.1566L953.184 82.1644L954.485 83.684ZM953.913 236.694L955.222 235.182L955.213 235.174L953.913 236.694ZM921.023 175.204L923.004 174.934L922.768 173.204H921.023V175.204ZM890.135 175.204V173.204H888.135V175.204H890.135ZM890.135 257V259H892.135V257H890.135ZM974.219 208.952L975.665 207.571L975.664 207.57L974.219 208.952ZM858.101 257V63.95H854.101V257H858.101ZM856.101 65.95H890.135V61.95H856.101V65.95ZM888.135 63.95V143.744H892.135V63.95H888.135ZM890.135 145.744H921.309V141.744H890.135V145.744ZM923.287 144.04C926.838 120.298 937.658 100.714 955.785 85.2036L953.184 82.1644C934.321 98.3048 923.024 118.76 919.331 143.448L923.287 144.04ZM955.776 85.2114C973.888 69.8996 995.446 62.232 1020.55 62.232V58.232C994.557 58.232 972.07 66.1991 953.193 82.1566L955.776 85.2114ZM1020.55 62.232C1048.46 62.232 1071.77 71.6676 1090.64 90.5322L1093.46 87.7038C1073.81 68.0537 1049.46 58.232 1020.55 58.232V62.232ZM1090.64 90.5322C1109.5 109.4 1118.94 132.622 1118.94 160.332H1122.94C1122.94 131.604 1113.11 107.351 1093.46 87.7038L1090.64 90.5322ZM1118.94 160.332C1118.94 188.431 1109.5 211.842 1090.64 230.704L1093.46 233.532C1113.12 213.879 1122.94 189.433 1122.94 160.332H1118.94ZM1090.64 230.704C1071.97 249.371 1048.66 258.718 1020.55 258.718V262.718C1049.65 262.718 1074 252.998 1093.46 233.532L1090.64 230.704ZM1020.55 258.718C995.07 258.718 973.33 250.863 955.222 235.182L952.603 238.206C971.485 254.557 994.17 262.718 1020.55 262.718V258.718ZM955.213 235.174C937.108 219.683 926.373 199.639 923.004 174.934L919.041 175.474C922.536 201.105 933.728 222.055 952.612 238.214L955.213 235.174ZM921.023 173.204H890.135V177.204H921.023V173.204ZM888.135 175.204V257H892.135V175.204H888.135ZM890.135 255H856.101V259H890.135V255ZM953.629 160.332C953.629 180.247 959.992 196.963 972.773 210.334L975.664 207.57C963.658 195.01 957.629 179.313 957.629 160.332H953.629ZM972.772 210.333C985.376 223.528 1001.35 230.114 1020.55 230.114V226.114C1002.38 226.114 987.466 219.925 975.665 207.571L972.772 210.333ZM1020.55 230.114C1039.75 230.114 1055.73 223.528 1068.33 210.333L1065.44 207.57C1053.63 219.924 1038.72 226.114 1020.55 226.114V230.114ZM1068.33 210.334C1081.11 196.963 1087.47 180.247 1087.47 160.332H1083.47C1083.47 179.313 1077.44 195.01 1065.44 207.57L1068.33 210.334ZM1087.47 160.332C1087.47 140.786 1081.1 124.265 1068.33 110.902L1065.44 113.665C1077.45 126.233 1083.47 141.744 1083.47 160.332H1087.47ZM1068.33 110.902C1055.73 97.707 1039.75 91.122 1020.55 91.122V95.122C1038.72 95.122 1053.63 101.311 1065.44 113.665L1068.33 110.902ZM1020.55 91.122C1001.53 91.122 985.557 97.8143 972.773 111.188L975.664 113.952C987.667 101.395 1002.58 95.122 1020.55 95.122V91.122ZM972.773 111.188C960.004 124.547 953.629 140.971 953.629 160.332H957.629C957.629 141.941 963.647 126.524 975.664 113.952L972.773 111.188ZM1141.62 257H1139.62V259H1141.62V257ZM1141.62 63.95V61.95H1139.62V63.95H1141.62ZM1175.65 63.95H1177.65V61.95H1175.65V63.95ZM1175.65 152.896H1173.65V158.296L1177.17 154.199L1175.65 152.896ZM1252.02 63.95V61.95H1251.1L1250.5 62.6472L1252.02 63.95ZM1295.49 63.95L1297.01 65.252L1299.84 61.95H1295.49V63.95ZM1214.55 158.33L1213.03 157.028L1211.9 158.343L1213.05 159.647L1214.55 158.33ZM1300.92 257V259H1305.33L1302.43 255.683L1300.92 257ZM1257.45 257L1255.94 258.317L1256.54 259H1257.45V257ZM1175.65 163.478L1177.16 162.161L1173.65 158.153V163.478H1175.65ZM1175.65 257V259H1177.65V257H1175.65ZM1143.62 257V63.95H1139.62V257H1143.62ZM1141.62 65.95H1175.65V61.95H1141.62V65.95ZM1173.65 63.95V152.896H1177.65V63.95H1173.65ZM1177.17 154.199L1253.53 65.2528L1250.5 62.6472L1174.14 151.593L1177.17 154.199ZM1252.02 65.95H1295.49V61.95H1252.02V65.95ZM1293.97 62.648L1213.03 157.028L1216.07 159.632L1297.01 65.252L1293.97 62.648ZM1213.05 159.647L1299.42 258.317L1302.43 255.683L1216.06 157.013L1213.05 159.647ZM1300.92 255H1257.45V259H1300.92V255ZM1258.96 255.683L1177.16 162.161L1174.15 164.795L1255.94 258.317L1258.96 255.683ZM1173.65 163.478V257H1177.65V163.478H1173.65ZM1175.65 255H1141.62V259H1175.65V255ZM80.234 439.216V437.216H79.1L78.5178 438.189L80.234 439.216ZM38.478 509V511H39.612L40.1942 510.027L38.478 509ZM0.439981 509L-1.27909 507.978L-3.07605 511H0.439981V509ZM44.484 434.926L46.2031 435.948L47.4314 433.882L45.1768 433.05L44.484 434.926ZM14.74 412.618L13.1044 413.769L13.1115 413.779L13.1186 413.789L14.74 412.618ZM22.462 333.682L21.1036 332.214L21.0925 332.224L21.0816 332.235L22.462 333.682ZM158.026 315.95H160.026V313.95H158.026V315.95ZM158.026 509V511H160.026V509H158.026ZM123.992 509H121.992V511H123.992V509ZM123.992 439.216H125.992V437.216H123.992V439.216ZM123.992 407.756V409.756H125.992V407.756H123.992ZM123.992 347.41H125.992V345.41H123.992V347.41ZM47.916 356.276L49.3302 357.69L49.3418 357.679L49.3532 357.667L47.916 356.276ZM78.5178 438.189L36.7618 507.973L40.1942 510.027L81.9502 440.243L78.5178 438.189ZM38.478 507H0.439981V511H38.478V507ZM2.15905 510.022L46.2031 435.948L42.7649 433.904L-1.27909 507.978L2.15905 510.022ZM45.1768 433.05C33.1403 428.606 23.555 421.407 16.3614 411.447L13.1186 413.789C20.797 424.421 31.0411 432.094 43.7913 436.802L45.1768 433.05ZM16.3756 411.467C9.37482 401.519 5.87198 390.292 5.87198 377.726H1.87198C1.87198 391.09 5.61448 403.125 13.1044 413.769L16.3756 411.467ZM5.87198 377.726C5.87198 360.717 11.8554 346.563 23.8424 335.129L21.0816 332.235C8.28187 344.444 1.87198 359.653 1.87198 377.726H5.87198ZM23.8204 335.15C36.2008 323.693 51.3404 317.95 69.366 317.95V313.95C50.4023 313.95 34.2726 320.028 21.1036 332.214L23.8204 335.15ZM69.366 317.95H158.026V313.95H69.366V317.95ZM156.026 315.95V509H160.026V315.95H156.026ZM158.026 507H123.992V511H158.026V507ZM125.992 509V439.216H121.992V509H125.992ZM123.992 437.216H80.234V441.216H123.992V437.216ZM69.366 409.756H123.992V405.756H69.366V409.756ZM125.992 407.756V347.41H121.992V407.756H125.992ZM123.992 345.41H69.366V349.41H123.992V345.41ZM69.366 345.41C60.2704 345.41 52.5934 348.567 46.4788 354.885L49.3532 357.667C54.6786 352.164 61.3016 349.41 69.366 349.41V345.41ZM46.5018 354.862C40.3822 360.981 37.336 368.651 37.336 377.726H41.336C41.336 369.641 44.0098 363.011 49.3302 357.69L46.5018 354.862ZM37.336 377.726C37.336 386.801 40.3822 394.471 46.5018 400.59L49.3302 397.762C44.0098 392.441 41.336 385.811 41.336 377.726H37.336ZM46.5018 400.59C52.6214 406.71 60.2913 409.756 69.366 409.756V405.756C61.2807 405.756 54.6506 403.082 49.3302 397.762L46.5018 400.59ZM218.47 509V511H220.47V509H218.47ZM184.436 509H182.436V511H184.436V509ZM184.436 315.95V313.95H182.436V315.95H184.436ZM218.47 315.95H220.47V313.95H218.47V315.95ZM218.47 395.744H216.47V397.744H218.47V395.744ZM317.712 395.744V397.744H319.712V395.744H317.712ZM317.712 315.95V313.95H315.712V315.95H317.712ZM351.746 315.95H353.746V313.95H351.746V315.95ZM351.746 509V511H353.746V509H351.746ZM317.712 509H315.712V511H317.712V509ZM317.712 427.204H319.712V425.204H317.712V427.204ZM218.47 427.204V425.204H216.47V427.204H218.47ZM218.47 507H184.436V511H218.47V507ZM186.436 509V315.95H182.436V509H186.436ZM184.436 317.95H218.47V313.95H184.436V317.95ZM216.47 315.95V395.744H220.47V315.95H216.47ZM218.47 397.744H317.712V393.744H218.47V397.744ZM319.712 395.744V315.95H315.712V395.744H319.712ZM317.712 317.95H351.746V313.95H317.712V317.95ZM349.746 315.95V509H353.746V315.95H349.746ZM351.746 507H317.712V511H351.746V507ZM319.712 509V427.204H315.712V509H319.712ZM317.712 425.204H218.47V429.204H317.712V425.204ZM216.47 427.204V509H220.47V427.204H216.47ZM412.101 509V511H414.101V509H412.101ZM378.067 509H376.067V511H378.067V509ZM378.067 315.95V313.95H376.067V315.95H378.067ZM412.101 315.95H414.101V313.95H412.101V315.95ZM412.101 395.744H410.101V397.744H412.101V395.744ZM511.343 395.744V397.744H513.343V395.744H511.343ZM511.343 315.95V313.95H509.343V315.95H511.343ZM545.377 315.95H547.377V313.95H545.377V315.95ZM545.377 509V511H547.377V509H545.377ZM511.343 509H509.343V511H511.343V509ZM511.343 427.204H513.343V425.204H511.343V427.204ZM412.101 427.204V425.204H410.101V427.204H412.101ZM412.101 507H378.067V511H412.101V507ZM380.067 509V315.95H376.067V509H380.067ZM378.067 317.95H412.101V313.95H378.067V317.95ZM410.101 315.95V395.744H414.101V315.95H410.101ZM412.101 397.744H511.343V393.744H412.101V397.744ZM513.343 395.744V315.95H509.343V395.744H513.343ZM511.343 317.95H545.377V313.95H511.343V317.95ZM543.377 315.95V509H547.377V315.95H543.377ZM545.377 507H511.343V511H545.377V507ZM513.343 509V427.204H509.343V509H513.343ZM511.343 425.204H412.101V429.204H511.343V425.204ZM410.101 427.204V509H414.101V427.204H410.101ZM593.148 509V511H594.476L594.991 509.776L593.148 509ZM557.398 509L555.561 508.211L554.362 511H557.398V509ZM640.338 315.95V313.95H639.021L638.501 315.161L640.338 315.95ZM668.08 315.95L669.917 315.158L669.396 313.95H668.08V315.95ZM751.306 509V511H754.346L753.143 508.208L751.306 509ZM715.556 509L713.713 509.776L714.228 511H715.556V509ZM699.54 470.962L701.383 470.186L700.868 468.962H699.54V470.962ZM609.164 470.962V468.962H607.836L607.321 470.186L609.164 470.962ZM686.384 439.788V441.788H689.405L688.225 439.007L686.384 439.788ZM654.352 364.284L656.193 363.503L654.352 359.163L652.511 363.503L654.352 364.284ZM622.32 439.788L620.479 439.007L619.299 441.788H622.32V439.788ZM593.148 507H557.398V511H593.148V507ZM559.236 509.789L642.176 316.739L638.501 315.161L555.561 508.211L559.236 509.789ZM640.338 317.95H668.08V313.95H640.338V317.95ZM666.244 316.742L749.47 509.792L753.143 508.208L669.917 315.158L666.244 316.742ZM751.306 507H715.556V511H751.306V507ZM717.399 508.224L701.383 470.186L697.697 471.738L713.713 509.776L717.399 508.224ZM699.54 468.962H609.164V472.962H699.54V468.962ZM607.321 470.186L591.305 508.224L594.991 509.776L611.007 471.738L607.321 470.186ZM688.225 439.007L656.193 363.503L652.511 365.065L684.543 440.569L688.225 439.007ZM652.511 363.503L620.479 439.007L624.161 440.569L656.193 365.065L652.511 363.503ZM622.32 441.788H686.384V437.788H622.32V441.788ZM967.312 326.818L966.265 328.522L966.277 328.529L966.289 328.537L967.312 326.818ZM1003.63 365.428L1004.33 367.301L1006.43 366.519L1005.42 364.525L1003.63 365.428ZM970.744 377.726L968.996 378.697L969.832 380.202L971.445 379.599L970.744 377.726ZM867.784 460.666L869.23 459.285V459.284L867.784 460.666ZM970.744 447.224L971.445 445.351L969.832 444.748L968.996 446.253L970.744 447.224ZM1003.63 459.522L1005.42 460.425L1006.43 458.431L1004.33 457.649L1003.63 459.522ZM967.312 498.418L968.344 500.131L968.35 500.128L967.312 498.418ZM843.744 482.704C825.077 464.037 815.73 440.723 815.73 412.618H811.73C811.73 441.713 821.45 466.066 840.916 485.532L843.744 482.704ZM815.73 412.618C815.73 384.513 825.077 361.199 843.744 342.532L840.916 339.704C821.45 359.17 811.73 383.523 811.73 412.618H815.73ZM843.744 342.532C862.603 323.673 886.108 314.232 914.402 314.232V310.232C885.115 310.232 860.572 320.048 840.916 339.704L843.744 342.532ZM914.402 314.232C933.499 314.232 950.77 319.001 966.265 328.522L968.359 325.114C952.204 315.187 934.202 310.232 914.402 310.232V314.232ZM966.289 328.537C981.988 337.881 993.827 350.472 1001.85 366.331L1005.42 364.525C997.044 347.971 984.668 334.822 968.335 325.099L966.289 328.537ZM1002.93 363.555L970.044 375.853L971.445 379.599L1004.33 367.301L1002.93 363.555ZM972.492 376.755C966.602 366.151 958.53 357.876 948.292 351.97L946.293 355.434C955.884 360.968 963.447 368.709 968.996 378.697L972.492 376.755ZM948.292 351.97C938.058 346.065 926.747 343.122 914.402 343.122V347.122C926.081 347.122 936.697 349.898 946.293 355.434L948.292 351.97ZM914.402 343.122C895.196 343.122 879.126 349.81 866.338 363.188L869.23 365.952C881.229 353.4 896.237 347.122 914.402 347.122V343.122ZM866.338 363.188C853.569 376.547 847.194 392.971 847.194 412.332H851.194C851.194 393.941 857.212 378.524 869.23 365.952L866.338 363.188ZM847.194 412.332C847.194 432.062 853.562 448.681 866.338 462.048L869.23 459.284C857.22 446.72 851.194 431.116 851.194 412.332H847.194ZM866.338 462.047C878.946 475.246 895.022 481.828 914.402 481.828V477.828C896.031 477.828 881.028 471.635 869.23 459.285L866.338 462.047ZM914.402 481.828C926.747 481.828 938.058 478.885 948.292 472.98L946.293 469.516C936.697 475.051 926.081 477.828 914.402 477.828V481.828ZM948.292 472.98C958.53 467.074 966.602 458.799 972.492 448.195L968.996 446.253C963.447 456.241 955.884 463.982 946.293 469.516L948.292 472.98ZM970.044 449.097L1002.93 461.395L1004.33 457.649L971.445 445.351L970.044 449.097ZM1001.85 458.619C993.825 474.482 981.981 487.172 966.274 496.708L968.35 500.128C984.675 490.216 997.046 476.976 1005.42 460.425L1001.85 458.619ZM966.28 496.705C950.783 506.04 933.506 510.718 914.402 510.718V514.718C934.194 514.718 952.191 509.862 968.344 500.131L966.28 496.705ZM914.402 510.718C885.907 510.718 862.406 501.365 843.744 482.704L840.916 485.532C860.388 505.004 884.934 514.718 914.402 514.718V510.718ZM1022.86 315.95V313.95H1020.86V315.95H1022.86ZM1164.15 315.95H1166.15V313.95H1164.15V315.95ZM1164.15 347.41V349.41H1166.15V347.41H1164.15ZM1056.9 347.41V345.41H1054.9V347.41H1056.9ZM1056.9 395.744H1054.9V397.744H1056.9V395.744ZM1149.28 395.744H1151.28V393.744H1149.28V395.744ZM1149.28 427.204V429.204H1151.28V427.204H1149.28ZM1056.9 427.204V425.204H1054.9V427.204H1056.9ZM1056.9 477.54H1054.9V479.54H1056.9V477.54ZM1165.58 477.54H1167.58V475.54H1165.58V477.54ZM1165.58 509V511H1167.58V509H1165.58ZM1022.86 509H1020.86V511H1022.86V509ZM1022.86 317.95H1164.15V313.95H1022.86V317.95ZM1162.15 315.95V347.41H1166.15V315.95H1162.15ZM1164.15 345.41H1056.9V349.41H1164.15V345.41ZM1054.9 347.41V395.744H1058.9V347.41H1054.9ZM1056.9 397.744H1149.28V393.744H1056.9V397.744ZM1147.28 395.744V427.204H1151.28V395.744H1147.28ZM1149.28 425.204H1056.9V429.204H1149.28V425.204ZM1054.9 427.204V477.54H1058.9V427.204H1054.9ZM1056.9 479.54H1165.58V475.54H1056.9V479.54ZM1163.58 477.54V509H1167.58V477.54H1163.58ZM1165.58 507H1022.86V511H1165.58V507ZM1024.86 509V315.95H1020.86V509H1024.86ZM1218.13 439.502V437.502H1216.13V439.502H1218.13ZM1218.13 509V511H1220.13V509H1218.13ZM1184.1 509H1182.1V511H1184.1V509ZM1184.1 315.95V313.95H1182.1V315.95H1184.1ZM1316.8 333.682L1315.42 335.129L1315.43 335.14L1315.44 335.151L1316.8 333.682ZM1316.8 421.77L1315.44 420.301L1315.43 420.312L1315.42 420.323L1316.8 421.77ZM1218.13 347.41V345.41H1216.13V347.41H1218.13ZM1218.13 408.042H1216.13V410.042H1218.13V408.042ZM1291.63 356.276L1290.19 357.667L1290.21 357.679L1290.22 357.69L1291.63 356.276ZM1216.13 439.502V509H1220.13V439.502H1216.13ZM1218.13 507H1184.1V511H1218.13V507ZM1186.1 509V315.95H1182.1V509H1186.1ZM1184.1 317.95H1269.9V313.95H1184.1V317.95ZM1269.9 317.95C1288.31 317.95 1303.44 323.7 1315.42 335.129L1318.18 332.235C1305.38 320.021 1289.23 313.95 1269.9 313.95V317.95ZM1315.44 335.151C1327.6 346.388 1333.68 360.53 1333.68 377.726H1337.68C1337.68 359.458 1331.17 344.237 1318.16 332.213L1315.44 335.151ZM1333.68 377.726C1333.68 394.922 1327.6 409.064 1315.44 420.301L1318.16 423.239C1331.17 411.215 1337.68 395.994 1337.68 377.726H1333.68ZM1315.42 420.323C1303.44 431.752 1288.31 437.502 1269.9 437.502V441.502C1289.23 441.502 1305.38 435.431 1318.18 423.217L1315.42 420.323ZM1269.9 437.502H1218.13V441.502H1269.9V437.502ZM1269.9 345.41H1218.13V349.41H1269.9V345.41ZM1216.13 347.41V408.042H1220.13V347.41H1216.13ZM1218.13 410.042H1269.9V406.042H1218.13V410.042ZM1269.9 410.042C1279.15 410.042 1286.92 407.005 1293.05 400.876L1290.22 398.048C1284.91 403.359 1278.19 406.042 1269.9 406.042V410.042ZM1293.05 400.876C1299.17 394.748 1302.21 386.978 1302.21 377.726H1298.21C1298.21 386.016 1295.53 392.736 1290.22 398.048L1293.05 400.876ZM1302.21 377.726C1302.21 368.651 1299.17 360.981 1293.05 354.862L1290.22 357.69C1295.54 363.011 1298.21 369.641 1298.21 377.726H1302.21ZM1293.07 354.885C1286.95 348.557 1279.17 345.41 1269.9 345.41V349.41C1278.16 349.41 1284.88 352.173 1290.19 357.667L1293.07 354.885ZM1389.7 347.41V345.41H1387.7V347.41H1389.7ZM1389.7 509V511H1391.7V509H1389.7ZM1355.66 509H1353.66V511H1355.66V509ZM1355.66 315.95V313.95H1353.66V315.95H1355.66ZM1481.79 315.95H1483.79V313.95H1481.79V315.95ZM1481.79 347.41V349.41H1483.79V347.41H1481.79ZM1387.7 347.41V509H1391.7V347.41H1387.7ZM1389.7 507H1355.66V511H1389.7V507ZM1357.66 509V315.95H1353.66V509H1357.66ZM1355.66 317.95H1481.79V313.95H1355.66V317.95ZM1479.79 315.95V347.41H1483.79V315.95H1479.79ZM1481.79 345.41H1389.7V349.41H1481.79V345.41ZM1497.62 315.95V313.95H1495.62V315.95H1497.62ZM1638.91 315.95H1640.91V313.95H1638.91V315.95ZM1638.91 347.41V349.41H1640.91V347.41H1638.91ZM1531.66 347.41V345.41H1529.66V347.41H1531.66ZM1531.66 395.744H1529.66V397.744H1531.66V395.744ZM1624.04 395.744H1626.04V393.744H1624.04V395.744ZM1624.04 427.204V429.204H1626.04V427.204H1624.04ZM1531.66 427.204V425.204H1529.66V427.204H1531.66ZM1531.66 477.54H1529.66V479.54H1531.66V477.54ZM1640.34 477.54H1642.34V475.54H1640.34V477.54ZM1640.34 509V511H1642.34V509H1640.34ZM1497.62 509H1495.62V511H1497.62V509ZM1497.62 317.95H1638.91V313.95H1497.62V317.95ZM1636.91 315.95V347.41H1640.91V315.95H1636.91ZM1638.91 345.41H1531.66V349.41H1638.91V345.41ZM1529.66 347.41V395.744H1533.66V347.41H1529.66ZM1531.66 397.744H1624.04V393.744H1531.66V397.744ZM1622.04 395.744V427.204H1626.04V395.744H1622.04ZM1624.04 425.204H1531.66V429.204H1624.04V425.204ZM1529.66 427.204V477.54H1533.66V427.204H1529.66ZM1531.66 479.54H1640.34V475.54H1531.66V479.54ZM1638.34 477.54V509H1642.34V477.54H1638.34ZM1640.34 507H1497.62V511H1640.34V507ZM1499.62 509V315.95H1495.62V509H1499.62ZM1658.86 315.95V313.95H1656.86V315.95H1658.86ZM1800.14 315.95H1802.14V313.95H1800.14V315.95ZM1800.14 347.41V349.41H1802.14V347.41H1800.14ZM1692.89 347.41V345.41H1690.89V347.41H1692.89ZM1692.89 395.744H1690.89V397.744H1692.89V395.744ZM1785.27 395.744H1787.27V393.744H1785.27V395.744ZM1785.27 427.204V429.204H1787.27V427.204H1785.27ZM1692.89 427.204V425.204H1690.89V427.204H1692.89ZM1692.89 477.54H1690.89V479.54H1692.89V477.54ZM1801.57 477.54H1803.57V475.54H1801.57V477.54ZM1801.57 509V511H1803.57V509H1801.57ZM1658.86 509H1656.86V511H1658.86V509ZM1658.86 317.95H1800.14V313.95H1658.86V317.95ZM1798.14 315.95V347.41H1802.14V315.95H1798.14ZM1800.14 345.41H1692.89V349.41H1800.14V345.41ZM1690.89 347.41V395.744H1694.89V347.41H1690.89ZM1692.89 397.744H1785.27V393.744H1692.89V397.744ZM1783.27 395.744V427.204H1787.27V395.744H1783.27ZM1785.27 425.204H1692.89V429.204H1785.27V425.204ZM1690.89 427.204V477.54H1694.89V427.204H1690.89ZM1692.89 479.54H1801.57V475.54H1692.89V479.54ZM1799.57 477.54V509H1803.57V477.54H1799.57ZM1801.57 507H1658.86V511H1801.57V507ZM1660.86 509V315.95H1656.86V509H1660.86ZM1820.09 509H1818.09V511H1820.09V509ZM1820.09 315.95V313.95H1818.09V315.95H1820.09ZM1951.93 407.47L1950.72 405.884L1948.32 407.724L1950.95 409.211L1951.93 407.47ZM1962.23 493.27L1963.57 494.755V494.754L1962.23 493.27ZM1854.12 425.202V423.202H1852.12V425.202H1854.12ZM1854.12 477.54H1852.12V479.54H1854.12V477.54ZM1936.78 432.924L1935.34 434.311L1935.36 434.338L1935.39 434.365L1936.78 432.924ZM1854.12 347.41V345.41H1852.12V347.41H1854.12ZM1854.12 394.028H1852.12V396.028H1854.12V394.028ZM1929.34 387.45L1927.96 386.006L1927.94 386.021L1927.93 386.036L1929.34 387.45ZM1929.34 354.274L1927.9 355.658L1927.93 355.689L1927.96 355.718L1929.34 354.274ZM1918.47 507H1820.09V511H1918.47V507ZM1822.09 509V315.95H1818.09V509H1822.09ZM1820.09 317.95H1912.75V313.95H1820.09V317.95ZM1912.75 317.95C1929.1 317.95 1942.62 322.857 1953.46 332.596L1956.13 329.62C1944.47 319.148 1929.97 313.95 1912.75 313.95V317.95ZM1953.46 332.596C1964.31 342.341 1969.67 354.106 1969.67 368.002H1973.67C1973.67 352.916 1967.78 340.086 1956.13 329.62L1953.46 332.596ZM1969.67 368.002C1969.67 383.57 1963.39 396.147 1950.72 405.884L1953.15 409.056C1966.79 398.583 1973.67 384.847 1973.67 368.002H1969.67ZM1950.95 409.211C1959.44 414.008 1966.04 420.349 1970.81 428.239L1974.24 426.169C1969.09 417.661 1961.97 410.846 1952.92 405.729L1950.95 409.211ZM1970.81 428.239C1975.58 436.12 1977.96 444.723 1977.96 454.088H1981.96C1981.96 444.005 1979.39 434.685 1974.24 426.169L1970.81 428.239ZM1977.96 454.088C1977.96 468.946 1972.31 481.474 1960.89 491.786L1963.57 494.754C1975.8 483.711 1981.96 470.118 1981.96 454.088H1977.96ZM1960.89 491.785C1949.67 501.9 1935.58 507 1918.47 507V511C1936.44 511 1951.53 505.614 1963.57 494.755L1960.89 491.785ZM1918.47 423.202H1854.12V427.202H1918.47V423.202ZM1852.12 425.202V477.54H1856.12V425.202H1852.12ZM1854.12 479.54H1918.47V475.54H1854.12V479.54ZM1918.47 479.54C1926.23 479.54 1932.84 476.864 1938.19 471.518L1935.36 468.69C1930.79 473.258 1925.21 475.54 1918.47 475.54V479.54ZM1938.19 471.518C1943.72 465.986 1946.5 459.182 1946.5 451.228H1942.5C1942.5 458.146 1940.13 463.926 1935.36 468.69L1938.19 471.518ZM1946.5 451.228C1946.5 443.448 1943.71 436.824 1938.16 431.483L1935.39 434.365C1940.14 438.939 1942.5 444.518 1942.5 451.228H1946.5ZM1938.22 431.537C1932.88 425.991 1926.25 423.202 1918.47 423.202V427.202C1925.18 427.202 1930.76 429.561 1935.34 434.311L1938.22 431.537ZM1912.75 345.41H1854.12V349.41H1912.75V345.41ZM1852.12 347.41V394.028H1856.12V347.41H1852.12ZM1854.12 396.028H1912.75V392.028H1854.12V396.028ZM1912.75 396.028C1919.91 396.028 1925.96 393.655 1930.75 388.864L1927.93 386.036C1923.95 390.016 1918.94 392.028 1912.75 392.028V396.028ZM1930.72 388.894C1935.72 384.11 1938.2 378.048 1938.2 370.862H1934.2C1934.2 377.022 1932.12 382.02 1927.96 386.006L1930.72 388.894ZM1938.2 370.862C1938.2 363.676 1935.72 357.614 1930.72 352.83L1927.96 355.718C1932.12 359.704 1934.2 364.702 1934.2 370.862H1938.2ZM1930.78 352.89C1926 347.898 1919.94 345.41 1912.75 345.41V349.41C1918.91 349.41 1923.91 351.498 1927.9 355.658L1930.78 352.89ZM2034.35 509V511H2036.35V509H2034.35ZM2000.31 509H1998.31V511H2000.31V509ZM2000.31 315.95V313.95H1998.31V315.95H2000.31ZM2034.35 315.95H2036.35V313.95H2034.35V315.95ZM2034.35 395.744H2032.35V397.744H2034.35V395.744ZM2133.59 395.744V397.744H2135.59V395.744H2133.59ZM2133.59 315.95V313.95H2131.59V315.95H2133.59ZM2167.62 315.95H2169.62V313.95H2167.62V315.95ZM2167.62 509V511H2169.62V509H2167.62ZM2133.59 509H2131.59V511H2133.59V509ZM2133.59 427.204H2135.59V425.204H2133.59V427.204ZM2034.35 427.204V425.204H2032.35V427.204H2034.35ZM2034.35 507H2000.31V511H2034.35V507ZM2002.31 509V315.95H1998.31V509H2002.31ZM2000.31 317.95H2034.35V313.95H2000.31V317.95ZM2032.35 315.95V395.744H2036.35V315.95H2032.35ZM2034.35 397.744H2133.59V393.744H2034.35V397.744ZM2135.59 395.744V315.95H2131.59V395.744H2135.59ZM2133.59 317.95H2167.62V313.95H2133.59V317.95ZM2165.62 315.95V509H2169.62V315.95H2165.62ZM2167.62 507H2133.59V511H2167.62V507ZM2135.59 509V427.204H2131.59V509H2135.59ZM2133.59 425.204H2034.35V429.204H2133.59V425.204ZM2032.35 427.204V509H2036.35V427.204H2032.35ZM2215.39 509V511H2216.72L2217.24 509.776L2215.39 509ZM2179.64 509L2177.81 508.211L2176.61 511H2179.64V509ZM2262.58 315.95V313.95H2261.27L2260.75 315.161L2262.58 315.95ZM2290.33 315.95L2292.16 315.158L2291.64 313.95H2290.33V315.95ZM2373.55 509V511H2376.59L2375.39 508.208L2373.55 509ZM2337.8 509L2335.96 509.776L2336.47 511H2337.8V509ZM2321.79 470.962L2323.63 470.186L2323.11 468.962H2321.79V470.962ZM2231.41 470.962V468.962H2230.08L2229.57 470.186L2231.41 470.962ZM2308.63 439.788V441.788H2311.65L2310.47 439.007L2308.63 439.788ZM2276.6 364.284L2278.44 363.503L2276.6 359.163L2274.76 363.503L2276.6 364.284ZM2244.57 439.788L2242.72 439.007L2241.54 441.788H2244.57V439.788ZM2215.39 507H2179.64V511H2215.39V507ZM2181.48 509.789L2264.42 316.739L2260.75 315.161L2177.81 508.211L2181.48 509.789ZM2262.58 317.95H2290.33V313.95H2262.58V317.95ZM2288.49 316.742L2371.72 509.792L2375.39 508.208L2292.16 315.158L2288.49 316.742ZM2373.55 507H2337.8V511H2373.55V507ZM2339.65 508.224L2323.63 470.186L2319.94 471.738L2335.96 509.776L2339.65 508.224ZM2321.79 468.962H2231.41V472.962H2321.79V468.962ZM2229.57 470.186L2213.55 508.224L2217.24 509.776L2233.25 471.738L2229.57 470.186ZM2310.47 439.007L2278.44 363.503L2274.76 365.065L2306.79 440.569L2310.47 439.007ZM2274.76 363.503L2242.72 439.007L2246.41 440.569L2278.44 365.065L2274.76 363.503ZM2244.57 441.788H2308.63V437.788H2244.57V441.788Z" fill="#151515"/>
</g>
</svg>
