<svg width="64" height="64" viewBox="0 0 64 64" fill="none" xmlns="http://www.w3.org/2000/svg">
<g clip-path="url(#clip0_537_2)">
<path fill-rule="evenodd" clip-rule="evenodd" d="M33.0925 28.6578C29.2754 32.1706 25.5494 35.4955 25.5494 35.4955C25.034 35.9548 24.9901 36.7449 25.4494 37.2602C25.9087 37.7744 26.6987 37.8195 27.214 37.3602C27.214 37.3602 36.9746 28.6479 41.1423 24.4802C41.7785 23.8451 41.9697 23.3583 42.0037 23.1561C42.0905 22.6419 41.9103 22.2793 41.651 22.0156C41.4609 21.8211 41.1785 21.6365 40.7456 21.6178C40.5336 21.609 40.0622 21.6914 39.4271 21.9903C35.7945 23.6989 21.3498 33.3221 21.3498 33.3221C20.7751 33.7045 20.6202 34.4813 21.0026 35.0549C21.3861 35.6296 22.1629 35.7845 22.7365 35.4021C22.7365 35.4021 28.1128 31.8157 33.0925 28.6578Z" fill="white"/>
<path fill-rule="evenodd" clip-rule="evenodd" d="M32 2.75C15.856 2.75 2.75 15.856 2.75 32C2.75 48.144 15.856 61.25 32 61.25C48.144 61.25 61.25 48.144 61.25 32C61.25 15.856 48.144 2.75 32 2.75ZM32 5.25C46.764 5.25 58.75 17.236 58.75 32C58.75 46.764 46.764 58.75 32 58.75C17.236 58.75 5.25 46.764 5.25 32C5.25 17.236 17.236 5.25 32 5.25Z" fill="white"/>
<path fill-rule="evenodd" clip-rule="evenodd" d="M21.0399 35.3516L23.7144 44.0518C23.7243 44.0836 23.7353 44.1155 23.7473 44.1463C24.0319 44.8605 24.3176 45.2758 24.522 45.4725C24.8912 45.8285 25.2703 45.9109 25.5845 45.9022C26.0262 45.889 26.7382 45.6253 27.0206 44.5781C27.0404 44.5012 27.0547 44.4232 27.0602 44.3441L27.4645 38.7754L38.0294 46.546C39.115 47.3701 40.0907 47.5448 40.8302 47.3196C41.5928 47.0866 42.3312 46.3878 42.6806 44.9001C42.6828 44.8913 42.685 44.8825 42.6861 44.8737L47.9009 20.3014C48.2119 18.9928 48.0372 18.0149 47.612 17.4435C47.1186 16.7787 46.1857 16.3271 44.5991 16.7556C44.5562 16.7666 44.5134 16.7809 44.4727 16.7974L13.8428 28.6764C13.7956 28.6951 13.7494 28.7171 13.7044 28.7401C12.2529 29.5192 11.9299 30.4103 11.9255 30.9872C11.92 31.764 12.465 32.5156 13.3901 32.887C13.4176 32.898 13.4451 32.909 13.4736 32.9177L21.0399 35.3516ZM45.5506 19.1125C45.5385 19.2906 45.5144 19.5323 45.466 19.7356C45.4627 19.7465 45.4605 19.7575 45.4583 19.7685L40.2446 44.3375C40.2006 44.5188 40.1138 44.7264 40.0556 44.8561C39.9171 44.788 39.6963 44.6726 39.5369 44.5506C39.5304 44.5462 39.5249 44.5418 39.5183 44.5374L27.1217 35.4208C26.7558 35.1516 26.2713 35.1021 25.8581 35.2922C25.445 35.4834 25.1681 35.8834 25.1351 36.3372L24.9099 39.4325L23.2375 33.9946C23.1177 33.6045 22.8145 33.2968 22.4255 33.1716L15.1801 30.8399L45.3056 19.1554C45.3869 19.1367 45.4726 19.1224 45.5506 19.1125Z" fill="white"/>
<path fill-rule="evenodd" clip-rule="evenodd" d="M26.4042 45.5909L31.8388 40.898C32.3607 40.4475 32.419 39.6574 31.9685 39.1355C31.5169 38.6136 30.7268 38.5554 30.2049 39.0059L24.7714 43.6988C24.2484 44.1493 24.1912 44.9393 24.6417 45.4613C25.0922 45.9843 25.8823 46.0414 26.4042 45.5909Z" fill="white"/>
</g>
<defs>
<clipPath id="clip0_537_2">
<rect width="64" height="64" fill="white"/>
</clipPath>
</defs>
</svg>
