<svg width="43" height="43" viewBox="0 0 43 43" fill="none" xmlns="http://www.w3.org/2000/svg">
<path fill-rule="evenodd" clip-rule="evenodd" d="M39.4115 21.9167C39.4115 31.8117 31.3898 39.8333 21.4948 39.8333C11.5997 39.8333 3.57812 31.8117 3.57812 21.9167C3.57812 12.0216 11.5997 4 21.4948 4C31.3898 4 39.4115 12.0216 39.4115 21.9167ZM22.1368 17.2269C20.3942 17.9517 16.9113 19.4519 11.6882 21.7275C10.8401 22.0648 10.3958 22.3949 10.3553 22.7174C10.287 23.2627 10.9698 23.4774 11.8996 23.7698C12.0261 23.8096 12.1571 23.8508 12.2915 23.8943C13.2063 24.1917 14.4368 24.5397 15.0766 24.5535C15.6568 24.566 16.3045 24.3268 17.0195 23.8357C21.8995 20.5416 24.4188 18.8766 24.5768 18.8406C24.6885 18.8153 24.8431 18.7834 24.9479 18.8766C25.0527 18.9697 25.0423 19.146 25.0312 19.1933C24.9637 19.4818 22.2833 21.9736 20.8962 23.2631C20.4639 23.6652 20.1572 23.9502 20.0944 24.0154C19.954 24.1613 19.8108 24.2992 19.6732 24.4318C18.8234 25.2511 18.186 25.8655 19.7085 26.8688C20.4401 27.351 21.0256 27.7496 21.6097 28.1474C22.2475 28.5818 22.8837 29.0151 23.707 29.5547C23.9166 29.6921 24.1169 29.8349 24.312 29.974C25.0543 30.5032 25.7212 30.9787 26.5452 30.9028C27.0239 30.8589 27.5184 30.4086 27.7696 29.066C28.3632 25.8929 29.5299 19.0177 29.7995 16.1848C29.8232 15.9366 29.7935 15.6189 29.7694 15.4795C29.7456 15.34 29.6958 15.1413 29.5145 14.9943C29.2998 14.8201 28.9684 14.7833 28.8202 14.7858C28.1464 14.7978 27.1124 15.1573 22.1368 17.2269Z" stroke="#F3F3EB" stroke-width="2" stroke-linejoin="round"/>
</svg>
