<svg width="40" height="40" viewBox="0 0 40 40" fill="none" xmlns="http://www.w3.org/2000/svg">
<path d="M28.5506 24.4775C28.0756 24.2525 25.8006 23.1275 25.3756 22.9525C24.9506 22.7775 24.6506 22.7275 24.3256 23.2025C24.0006 23.6775 23.1256 24.7025 22.8506 25.0275C22.5756 25.3525 22.3256 25.3775 21.8506 25.0275C20.4863 24.48 19.2262 23.702 18.1256 22.7275C17.1292 21.7894 16.2857 20.7013 15.6256 19.5025C15.3506 19.0525 15.6256 18.8025 15.8256 18.5525C16.0256 18.3025 16.2756 18.0275 16.5256 17.7525C16.7084 17.5147 16.8596 17.2542 16.9756 16.9775C17.0376 16.8489 17.0698 16.7079 17.0698 16.565C17.0698 16.4222 17.0376 16.2812 16.9756 16.1525C16.9756 15.9275 15.9256 13.6525 15.5256 12.7275C15.1256 11.8025 14.7756 11.9275 14.5006 11.9275H13.5006C13.0242 11.9461 12.5746 12.1529 12.2506 12.5025C11.7275 13.0017 11.3131 13.6036 11.0335 14.2704C10.7539 14.9372 10.615 15.6545 10.6256 16.3775C10.7534 18.1525 11.4061 19.8494 12.5006 21.2525C14.509 24.2361 17.2567 26.6479 20.4756 28.2525C21.5756 28.7275 22.4256 29.0025 23.1006 29.2275C24.0484 29.514 25.0503 29.574 26.0256 29.4025C26.6733 29.2711 27.2871 29.008 27.829 28.6296C28.3709 28.2512 28.8292 27.7654 29.1756 27.2025C29.4638 26.5074 29.5588 25.7472 29.4506 25.0025C29.3256 24.8275 29.0256 24.7025 28.5506 24.4775Z" fill="#F3F3EB"/>
<path d="M33.2246 7.45064C31.4957 5.70535 29.4347 4.32395 27.1634 3.38792C24.892 2.4519 22.4562 1.98019 19.9996 2.00064C16.7453 2.01767 13.5525 2.88822 10.74 4.52534C7.92743 6.16247 5.59365 8.50886 3.97171 11.3302C2.34976 14.1515 1.49643 17.349 1.49694 20.6033C1.49745 23.8576 2.35178 27.0548 3.97461 29.8756L1.47461 39.5006L11.3246 37.0006C14.0477 38.4824 17.0995 39.2561 20.1996 39.2506H19.9996C23.6944 39.2747 27.3127 38.1978 30.393 36.1573C33.4733 34.1167 35.876 31.205 37.2948 27.7934C38.7137 24.3818 39.0842 20.6249 38.3593 17.0018C37.6344 13.3788 35.8469 10.0537 33.2246 7.45064ZM19.9996 36.0506C17.226 36.0528 14.5039 35.301 12.1246 33.8756L11.5746 33.5506L5.72461 35.0756L7.27461 29.3756L6.92461 28.8006C4.928 25.5852 4.18114 21.7488 4.82573 18.0192C5.47032 14.2896 7.46152 10.9264 10.4215 8.5676C13.3815 6.20885 17.1044 5.01869 20.8838 5.22293C24.6631 5.42718 28.236 7.01162 30.9246 9.67564C32.366 11.1054 33.5084 12.8077 34.2852 14.6833C35.0621 16.559 35.4579 18.5705 35.4496 20.6006C35.443 24.6962 33.8131 28.6221 30.9171 31.5181C28.0211 34.4141 24.0952 36.044 19.9996 36.0506Z" fill="#F3F3EB"/>
</svg>
